<svg width="515" height="139" viewBox="0 0 515 139" fill="none" xmlns="http://www.w3.org/2000/svg">
<path d="M200.835 12.78V14.98C198.705 15.71 197.785 16.2 197.785 18.46V26.03L198.455 26.09C201.935 26.09 203.575 23.47 204.435 21.7C206.085 18.22 207.975 12 213.825 12C214.985 12 216.325 12.24 217.855 12.79V22.61H215.105C214.985 21.39 214.125 20.54 213.095 20.54C212.545 20.54 211.875 20.78 211.265 21.39C209.255 23.4 209.675 25.66 204.065 27.49V27.86C205.225 28.1 210.405 29.38 214.005 33.59C217.665 37.86 218.395 43.11 218.885 47.01C219.435 51.04 219.065 52.44 221.565 53.29V55.49H207.225V53.29C209.785 52.44 209.845 50 209.845 47.01C209.845 42.19 209.235 38.22 206.735 34.38C206.065 33.34 203.195 29.32 198.565 29.32L197.775 29.38V49.82C197.775 52.08 198.695 52.57 200.825 53.3V55.5H185.575V53.3C187.715 52.57 188.625 52.08 188.625 49.82V29.38L187.835 29.32C183.195 29.32 180.335 33.35 179.665 34.38C177.165 38.22 176.555 42.19 176.555 47.01C176.555 50 176.615 52.44 179.175 53.29V55.49H164.835V53.29C167.395 52.44 166.965 51.16 167.585 46.52C168.135 42.43 168.925 37.61 172.345 33.59C176.005 29.38 181.195 28.1 182.345 27.86V27.49C176.735 25.66 177.155 23.4 175.145 21.39C174.535 20.78 173.865 20.54 173.315 20.54C172.275 20.54 171.425 21.39 171.305 22.61H168.555V12.79C170.075 12.24 171.425 12 172.585 12C178.445 12 180.335 18.22 181.975 21.7C182.825 23.47 184.475 26.09 187.955 26.09L188.625 26.03V18.46C188.625 16.2 187.705 15.71 185.575 14.98V12.78H200.825H200.835Z" fill="black"/>
<path d="M234.075 42.67V45.72C234.075 50.17 235.475 52.67 239.075 52.67C241.515 52.67 243.225 51.33 245.115 49.13L246.885 50.84C245.605 52.73 242.555 55.96 237.365 55.96C229.255 55.96 225.715 49.68 225.715 44.19C225.715 38.7 229.315 31.38 237.425 31.38C243.835 31.38 247.245 36.69 247.245 42.36V42.67H234.065H234.075ZM240.545 39.25C240.545 34.31 238.715 33.82 237.375 33.82C235.725 33.82 234.085 34.74 234.085 39.25V40.23H240.555V39.25H240.545Z" fill="black"/>
<path d="M262.865 34.01C261.215 34.19 260.605 35.78 260.605 37.3V42.3H268.105V37.3C268.105 36.93 268.105 34.37 265.905 34.01V31.88H277.805V34.01C275.735 34.25 275.605 36.45 275.605 37.3V49.99C275.605 51.15 275.725 52.92 277.805 53.35V55.48H265.905V53.35C267.615 52.92 268.105 51.58 268.105 49.99V44.74H260.605V49.99C260.605 51.88 261.335 52.98 262.865 53.35V55.48H250.905V53.35C252.615 52.92 253.105 51.58 253.105 49.99V37.3C253.105 36.93 253.105 34.37 250.905 34.01V31.88H262.865V34.01Z" fill="black"/>
<path d="M293.675 31.88V34.01C291.475 34.38 291.475 36.94 291.475 37.3V53.04H298.975V37.3C298.975 36.93 298.975 34.37 296.775 34.01V31.88H308.735V34.01C307.085 34.19 306.475 35.78 306.475 37.3V53.04H313.975V37.3C313.975 35.84 313.305 34.19 311.775 34.01V31.88H323.675V34.01C321.605 34.25 321.475 36.45 321.475 37.3V49.99C321.475 51.58 321.595 52.19 321.775 52.61C322.145 53.53 323.235 54.32 323.975 54.99C325.315 56.21 326.105 57.37 326.105 59.38C326.105 65.79 318.055 66.7 315.795 66.7C312.375 66.7 308.475 65.6 305.485 64.14C302.435 62.74 300.365 61.64 298.715 61.64C297.675 61.64 296.825 62.19 296.825 62.8C296.825 63.29 297.495 63.29 297.925 63.47C298.475 63.65 299.085 64.26 299.085 65C299.085 65.92 298.475 66.71 297.255 66.71C295.975 66.71 294.755 65.61 294.755 63.84C294.755 61.77 296.765 58.78 302.315 58.78C311.105 58.78 313.115 62.68 319.885 62.68C321.835 62.68 323.785 61.7 323.785 59.57C323.785 55.67 319.575 55.48 317.995 55.48H281.695V53.35C283.225 52.98 283.955 51.89 283.955 49.99V37.3C283.955 35.78 283.345 34.19 281.695 34.01V31.88H293.655H293.675Z" fill="black"/>
<path d="M339.365 31.88V34.01C337.715 34.19 337.105 35.78 337.105 37.3V45.9H337.225L344.605 37.54V37.36C344.605 35.96 344.115 34.31 342.405 34V31.87H354.305V34C352.235 34.24 352.105 36.44 352.105 37.29V49.98C352.105 51.14 352.225 52.91 354.305 53.34V55.47H342.405V53.34C344.115 52.91 344.605 51.57 344.605 49.98V41.44H344.485L337.105 49.86V50.16C337.105 51.87 337.655 53.03 339.365 53.33V55.46H327.405V53.33C329.115 52.9 329.605 51.56 329.605 49.97V37.28C329.605 36.91 329.605 34.35 327.405 33.99V31.86H339.365V31.88Z" fill="black"/>
<path d="M370.165 34.01C368.515 34.19 367.905 35.78 367.905 37.3V42.3H375.405V37.3C375.405 36.93 375.405 34.37 373.205 34.01V31.88H385.105V34.01C383.035 34.25 382.905 36.45 382.905 37.3V49.99C382.905 51.15 383.025 52.92 385.105 53.35V55.48H373.205V53.35C374.915 52.92 375.405 51.58 375.405 49.99V44.74H367.905V49.99C367.905 51.88 368.635 52.98 370.165 53.35V55.48H358.205V53.35C359.915 52.92 360.405 51.58 360.405 49.99V37.3C360.405 36.93 360.405 34.37 358.205 34.01V31.88H370.165V34.01Z" fill="black"/>
<path d="M401.085 34.01C398.885 34.31 398.885 36.39 398.885 37.3V39.8H399.005C401.075 38.09 403.645 37.97 404.735 37.97C409.315 37.97 413.395 41.51 413.395 47C413.395 48.16 413.095 49.32 412.605 50.36C410.285 55.48 405.045 55.48 402.115 55.48H389.185V53.35C390.895 52.92 391.385 51.58 391.385 49.99V37.3C391.385 35.78 390.775 34.19 389.125 34.01V31.88H401.085V34.01ZM398.885 53.04H400.655C402.855 53.04 405.045 52.92 405.045 47.49V47.18C405.045 44.5 404.985 41.57 401.875 41.57C401.025 41.57 399.865 41.81 398.885 42.85V53.04ZM426.825 31.87V34C425.175 34.18 424.565 35.77 424.565 37.29V49.98C424.565 51.87 425.295 52.97 426.825 53.34V55.47H414.805V53.34C416.335 52.97 417.065 51.88 417.065 49.98V37.29C417.065 35.77 416.455 34.18 414.805 34V31.87H426.825Z" fill="black"/>
<path d="M179.545 72.78L190.645 103.22H190.885L201.985 72.78H215.895V74.98C214.915 75.1 212.905 75.71 212.905 78.46V109.88C212.905 112.5 214.915 113.17 215.895 113.3V115.5H200.705V113.3C203.515 112.93 203.755 110.92 203.755 109.88V78.65H203.325L189.905 115.5H185.635L171.845 77.68H171.605V109.28C171.605 112.94 173.985 113.31 175.025 113.31V115.51H164.835V113.31C168.125 113.31 168.255 110.26 168.255 109.22V80C168.255 79.15 168.255 75 164.835 75V72.8H179.535L179.545 72.78Z" fill="black"/>
<path d="M232.245 91.88V94.01C230.595 94.19 229.985 95.78 229.985 97.3V105.9H230.105L237.485 97.54V97.36C237.485 95.96 236.995 94.31 235.285 94V91.87H247.185V94C245.115 94.24 244.985 96.44 244.985 97.29V109.98C244.985 111.14 245.105 112.91 247.185 113.34V115.47H235.285V113.34C236.995 112.91 237.485 111.57 237.485 109.98V101.44H237.365L229.985 109.86V110.16C229.985 111.87 230.535 113.03 232.245 113.33V115.46H220.285V113.33C221.995 112.9 222.485 111.56 222.485 109.97V97.28C222.485 96.91 222.485 94.35 220.285 93.99V91.86H232.245V91.88Z" fill="black"/>
<path d="M251.095 125.37C253.595 125.07 253.655 122.99 253.655 122.38V102.98C253.655 94.07 260.975 91.39 266.895 91.39C274.645 91.39 279.955 96.15 279.955 103.35C279.955 110.55 275.565 115.49 268.975 115.49C266.905 115.49 264.215 115.25 261.535 113.6H261.165V122.39C261.165 124.4 262.815 125.2 263.845 125.38V127.51H251.095V125.38V125.37ZM261.165 107.98C261.165 110.48 263.485 112.37 266.535 112.37C271.175 112.37 271.595 107.92 271.595 103.16C271.595 97.91 271.105 93.83 266.285 93.83C263.785 93.83 261.165 95.42 261.165 99.26V107.98Z" fill="black"/>
<path d="M283.365 103.59C283.365 96.82 288.125 91.39 295.625 91.39C303.125 91.39 307.885 96.64 307.885 103.59C307.885 110.91 302.825 115.97 295.625 115.97C288.425 115.97 283.365 110.78 283.365 103.59ZM299.535 106.7V100.48C299.535 96.82 299.165 93.83 295.635 93.83C292.105 93.83 291.735 96.82 291.735 100.48V106.7C291.735 110.42 292.105 113.53 295.635 113.53C299.165 113.53 299.535 110.42 299.535 106.7Z" fill="black"/>
<path d="M333.445 91.88V99.99H331.495C330.825 95.54 327.835 94.5 325.705 94.32V110C325.705 111.16 325.825 112.93 327.905 113.36V115.49H316.005V113.36C317.715 112.93 318.205 111.59 318.205 110V94.32C316.075 94.5 313.085 95.54 312.415 99.99H310.465V91.88H333.465H333.445Z" fill="black"/>
<path d="M350.155 91.88C353.385 91.88 359.615 92.18 359.615 97.61C359.615 99.01 359.125 103.04 352.115 103.4V103.64H352.355C358.885 103.64 361.015 106.26 361.015 109.37C361.015 115.1 355.095 115.47 350.705 115.47H336.245V113.34C337.955 112.91 338.445 111.57 338.445 109.98V97.29C338.445 96.92 338.445 94.36 336.245 94V91.87H350.155V91.88ZM345.945 102.01H347.835C350.825 102.01 352.165 100.91 352.165 98.17C352.165 96.46 351.735 94.33 347.835 94.33H345.945V102.02V102.01ZM345.945 113.05H347.895C351.495 113.05 352.655 111.34 352.655 108.96C352.655 104.75 349.425 104.45 347.715 104.45H345.945V113.05Z" fill="black"/>
<path d="M364.005 103.59C364.005 96.82 368.765 91.39 376.265 91.39C383.765 91.39 388.525 96.64 388.525 103.59C388.525 110.91 383.465 115.97 376.265 115.97C369.065 115.97 364.005 110.78 364.005 103.59ZM380.175 106.7V100.48C380.175 96.82 379.805 93.83 376.275 93.83C372.745 93.83 372.375 96.82 372.375 100.48V106.7C372.375 110.42 372.745 113.53 376.275 113.53C379.805 113.53 380.175 110.42 380.175 106.7Z" fill="black"/>
<path d="M392.185 125.37C394.685 125.07 394.745 122.99 394.745 122.38V102.98C394.745 94.07 402.065 91.39 407.985 91.39C415.735 91.39 421.045 96.15 421.045 103.35C421.045 110.55 416.655 115.49 410.065 115.49C407.995 115.49 405.305 115.25 402.625 113.6H402.255V122.39C402.255 124.4 403.905 125.2 404.935 125.38V127.51H392.185V125.38V125.37ZM402.255 107.98C402.255 110.48 404.575 112.37 407.625 112.37C412.265 112.37 412.685 107.92 412.685 103.16C412.685 97.91 412.195 93.83 407.375 93.83C404.875 93.83 402.255 95.42 402.255 99.26V107.98Z" fill="black"/>
<path d="M424.695 113.35C426.225 112.98 426.955 111.89 426.955 109.99V97.3C426.955 95.78 426.345 94.19 424.695 94.01V91.88H436.655V94.01C434.455 94.38 434.455 96.94 434.455 97.3V113.04H441.955V97.3C441.955 96.93 441.955 94.37 439.755 94.01V91.88H451.715V94.01C450.065 94.19 449.455 95.78 449.455 97.3V110.48C449.455 112.86 450.005 113.04 451.345 114.26C452.745 115.6 454.155 117.25 454.155 119.75C454.155 123.53 451.165 126.46 447.135 126.89C446.465 126.95 445.795 126.95 445.125 126.95C444.085 126.95 441.345 126.58 438.295 124.63C436.585 123.53 434.205 121.7 432.435 121.7C431.215 121.7 430.845 122.55 430.845 123.04C430.845 123.59 431.335 123.47 432.065 123.71C432.675 124.02 433.105 124.56 433.105 125.24C433.105 125.92 432.735 126.95 431.395 126.95C429.865 126.95 428.525 125.85 428.525 123.96C428.525 120.54 432.675 118.77 436.025 118.77C438.585 118.77 440.785 119.75 442.065 120.3C442.125 120.36 442.185 120.36 442.245 120.36L442.485 120.48C445.355 121.82 446.935 122.8 448.525 122.8C449.805 122.8 451.755 121.82 451.755 119.38C451.755 115.48 447.915 115.48 446.755 115.48H424.675V113.35H424.695Z" fill="black"/>
<path d="M467.515 94.01C465.315 94.31 465.315 96.39 465.315 97.3V99.8H465.435C467.505 98.09 470.075 97.97 471.165 97.97C475.745 97.97 479.825 101.51 479.825 107C479.825 108.16 479.525 109.32 479.035 110.36C476.715 115.48 471.475 115.48 468.545 115.48H455.615V113.35C457.325 112.92 457.815 111.58 457.815 109.99V97.3C457.815 95.78 457.205 94.19 455.555 94.01V91.88H467.515V94.01ZM465.315 113.04H467.085C469.285 113.04 471.475 112.92 471.475 107.49V107.18C471.475 104.5 471.415 101.57 468.305 101.57C467.455 101.57 466.295 101.81 465.315 102.85V113.04ZM493.255 91.87V94C491.605 94.18 490.995 95.77 490.995 97.29V109.98C490.995 111.87 491.725 112.97 493.255 113.34V115.47H481.235V113.34C482.765 112.97 483.495 111.88 483.495 109.98V97.29C483.495 95.77 482.885 94.18 481.235 94V91.87H493.255Z" fill="black"/>
<path d="M74.6134 42.6034C76.6704 40.4156 79.3466 34.4922 75.6453 31.6922C71.944 28.8921 68.5455 32.1462 68.5455 32.1462C68.5455 32.1462 65.1469 28.8852 61.4456 31.6922C57.7443 34.4922 60.4205 40.4156 62.4776 42.6034C64.4039 44.6535 66.6811 46.3528 68.5455 46.2702C70.4099 46.3528 72.687 44.6535 74.6134 42.6034Z" fill="#00A99D"/>
<path d="M68.6211 94.2974C66.7567 94.2149 64.4796 95.9142 62.5533 97.9643C60.4962 100.152 57.82 106.075 61.5213 108.876C65.2226 111.676 68.6211 108.421 68.6211 108.421C68.6211 108.421 72.0197 111.682 75.721 108.876C79.4223 106.075 76.7461 100.152 74.689 97.9643C72.7627 95.9142 70.4855 94.2149 68.6211 94.2974Z" fill="#00A99D"/>
<path d="M72.4465 81.0196V74.1468H78.0603C78.9271 74.1468 79.6289 73.4451 79.6289 72.5782V67.9895C79.6289 67.1226 78.9271 66.4209 78.0603 66.4209H72.4465V59.5481C77.9433 58.1377 82.4908 53.8654 84.94 51.1136C88.7169 46.8826 92.487 38.9365 91.8541 31.472C91.4482 26.7182 89.3568 22.7073 85.7931 19.8729C82.6972 17.403 79.1198 16.1028 75.4391 16.1028C72.7973 16.1028 70.4789 16.7563 68.5801 17.6026C66.6813 16.7563 64.3628 16.1028 61.721 16.1028C58.0473 16.1028 54.4698 17.4099 51.3671 19.8729C47.8034 22.7073 45.712 26.7182 45.306 31.472C44.6731 38.9365 48.4432 46.8826 52.2201 51.1136C54.6693 53.8586 59.2237 58.1377 64.7137 59.5481V66.4209H59.0998C58.233 66.4209 57.5313 67.1226 57.5313 67.9895V72.5782C57.5313 73.4451 58.233 74.1468 59.0998 74.1468H64.7137V78.77V81.0196C59.2168 82.43 54.6693 86.7023 52.2201 89.4541C48.4432 93.6851 44.6731 101.631 45.306 109.096C45.712 113.85 47.8034 117.86 51.3671 120.695C54.4629 123.165 58.0404 124.465 61.721 124.465C64.3628 124.465 66.6813 123.811 68.5801 122.965C70.4789 123.811 72.7973 124.465 75.4391 124.465C79.1129 124.465 82.6903 123.158 85.7931 120.695C89.3568 117.86 91.4482 113.85 91.8541 109.096C92.487 101.631 88.7169 93.6851 84.94 89.4541C82.4908 86.7091 77.9365 82.43 72.4465 81.0196ZM57.9853 45.9744C54.3941 41.9498 49.7228 31.0661 56.1829 25.9132C58.1229 24.3653 60.0217 23.8218 61.721 23.8218C65.6768 23.8218 68.5801 26.7526 68.5801 26.7526C68.5801 26.7526 71.4833 23.8218 75.4391 23.8218C77.1384 23.8218 79.0372 24.3653 80.9773 25.9132C87.4373 31.0592 82.766 41.9498 79.1748 45.9744C75.9001 49.6413 72.0543 52.3038 68.8484 52.3038C68.7589 52.3038 68.6626 52.3038 68.5732 52.3038C68.4838 52.3038 68.3943 52.3038 68.298 52.3038C65.0921 52.3038 61.2463 49.6413 57.9716 45.9744H57.9853ZM80.9773 114.648C79.0372 116.196 77.1384 116.739 75.4391 116.739C71.4833 116.739 68.5801 113.808 68.5801 113.808C68.5801 113.808 65.6768 116.739 61.721 116.739C60.0217 116.739 58.1229 116.196 56.1829 114.648C49.7228 109.502 54.3941 98.611 57.9853 94.5864C61.2601 90.9195 65.1058 88.257 68.3118 88.257C68.4012 88.257 68.4975 88.257 68.587 88.257C68.6764 88.257 68.7658 88.257 68.8621 88.257C72.0681 88.257 75.9138 90.9195 79.1886 94.5864C82.7798 98.611 87.4511 109.495 80.991 114.648H80.9773Z" fill="#00A99D"/>
<path d="M96.2638 76.3207C98.4515 78.3778 104.375 81.054 107.175 77.3527C109.975 73.6514 106.721 70.2529 106.721 70.2529C106.721 70.2529 109.982 66.8543 107.175 63.153C104.375 59.4517 98.4515 62.1279 96.2638 64.185C94.2136 66.1113 92.5143 68.3885 92.5969 70.2529C92.5143 72.1173 94.2136 74.3944 96.2638 76.3207Z" fill="#00A99D"/>
<path d="M44.5697 70.3216C44.6522 68.4572 42.9529 66.18 40.9028 64.2537C38.715 62.1967 32.7916 59.5205 29.9916 63.2217C27.1915 66.923 30.4456 70.3216 30.4456 70.3216C30.4456 70.3216 27.1847 73.7202 29.9916 77.4214C32.7916 81.1227 38.715 78.4465 40.9028 76.3895C42.9529 74.4632 44.6522 72.186 44.5697 70.3216Z" fill="#00A99D"/>
<path d="M57.8476 74.1468H64.7205V79.7606C64.7205 80.6274 65.4222 81.3292 66.289 81.3292H70.8778C71.7446 81.3292 72.4464 80.6274 72.4464 79.7606V74.1468H79.3192C80.7295 79.6437 85.0018 84.1911 87.7537 86.6403C91.9847 90.4173 99.9307 94.1873 107.395 93.5544C112.149 93.1485 116.16 91.0571 118.994 87.4934C121.464 84.3975 122.764 80.8201 122.764 77.1394C122.764 74.4976 122.111 72.1792 121.265 70.2804C122.111 68.3816 122.764 66.0631 122.764 63.4213C122.764 59.7476 121.457 56.1701 118.994 53.0674C116.16 49.5037 112.149 47.4123 107.395 47.0064C99.9307 46.3734 91.9847 50.1435 87.7537 53.9205C85.0087 56.3696 80.7295 60.924 79.3192 66.414H72.4464V60.8002C72.4464 59.9333 71.7446 59.2316 70.8778 59.2316H66.289C65.4222 59.2316 64.7205 59.9333 64.7205 60.8002V66.414H60.0973H57.8476C56.4373 60.9171 52.165 56.3696 49.4131 53.9205C45.1821 50.1435 37.2361 46.3734 29.7716 47.0064C25.0177 47.4123 21.0069 49.5037 18.1724 53.0674C15.7026 56.1632 14.4023 59.7407 14.4023 63.4213C14.4023 66.0631 15.0559 68.3816 15.9021 70.2804C15.0559 72.1792 14.4023 74.4976 14.4023 77.1394C14.4023 80.8132 15.7095 84.3907 18.1724 87.4934C21.0069 91.0571 25.0177 93.1485 29.7716 93.5544C37.2361 94.1873 45.1821 90.4173 49.4131 86.6403C52.1581 84.1911 56.4373 79.6368 57.8476 74.1468ZM92.8928 59.6856C96.9174 56.0944 107.801 51.4231 112.954 57.8832C114.502 59.8232 115.045 61.722 115.045 63.4213C115.045 67.3771 112.115 70.2804 112.115 70.2804C112.115 70.2804 115.045 73.1836 115.045 77.1394C115.045 78.8387 114.502 80.7375 112.954 82.6776C107.808 89.1376 96.9174 84.4663 92.8928 80.8751C89.2259 77.6004 86.5635 73.7546 86.5635 70.5487C86.5635 70.4593 86.5635 70.3629 86.5635 70.2735C86.5635 70.1841 86.5635 70.0946 86.5635 69.9983C86.5635 66.7924 89.2259 62.9466 92.8928 59.6719V59.6856ZM24.2197 82.6776C22.6717 80.7375 22.1283 78.8387 22.1283 77.1394C22.1283 73.1836 25.059 70.2804 25.059 70.2804C25.059 70.2804 22.1283 67.3771 22.1283 63.4213C22.1283 61.722 22.6717 59.8232 24.2197 57.8832C29.3657 51.4231 40.2563 56.0944 44.2809 59.6856C47.9478 62.9604 50.6102 66.8061 50.6102 70.0121C50.6102 70.1015 50.6102 70.1978 50.6102 70.2873C50.6102 70.3767 50.6102 70.4661 50.6102 70.5624C50.6102 73.7684 47.9478 77.6141 44.2809 80.8889C40.2563 84.4801 29.3726 89.1514 24.2197 82.6914V82.6776Z" fill="#00A99D"/>
<path d="M119.318 40.6564C116.786 41.5989 114.007 41.3031 112.961 41.2136C112.122 41.1448 111.248 40.9728 110.34 40.677C101.885 37.9527 96.5597 41.3168 96.9244 40.9384C97.172 40.6839 97.3991 40.4431 97.6123 40.2092C97.3853 40.4225 97.1445 40.6495 96.8831 40.8972C96.5047 41.2618 99.8689 35.93 97.1445 27.4818C96.8556 26.5805 96.6836 25.6999 96.6079 24.8606C96.5185 23.8149 96.2226 21.0355 97.1652 18.5038C97.5848 17.3686 98.204 16.2816 99.1121 15.3735C102.277 12.2088 107.409 12.2088 110.581 15.3735C112.631 17.4236 113.353 20.2925 112.748 22.9274C112.404 24.9225 110.959 26.0164 110.814 26.1402C110.161 26.6837 108.489 27.9221 106.549 27.3854C104.313 26.7663 103.329 25.3215 103.233 23.9318C103.212 23.6429 103.494 21.5996 105.407 22.0055C104.114 24.324 107.333 25.4729 107.946 22.9205C108.111 22.2257 107.65 21.0561 106.666 20.6158C105.249 19.976 103.708 20.2787 102.676 21.8266C101.761 23.2026 101.947 25.1083 102.731 26.5736C103.433 27.8945 105.276 31.2862 103.921 33.9143C106.549 32.559 109.941 34.4027 111.262 35.1045C112.734 35.8887 114.633 36.0745 116.009 35.1595C117.563 34.1275 117.866 32.5796 117.219 31.1693C116.772 30.1855 115.61 29.7245 114.915 29.8897C112.362 30.4951 113.511 33.7216 115.83 32.4283C116.229 34.3408 114.186 34.6229 113.903 34.6022C112.514 34.5059 111.069 33.5153 110.45 31.2862C109.913 29.353 111.152 27.6813 111.695 27.0208C111.819 26.8763 112.913 25.4316 114.908 25.0876C117.536 24.4822 120.412 25.2046 122.462 27.2547C125.626 30.4194 125.626 35.5517 122.462 38.7232C121.547 39.6382 120.46 40.2505 119.332 40.6701L119.318 40.6564Z" fill="#D14A43"/>
<path d="M39.9262 120.048C40.8687 117.517 40.5729 114.737 40.4834 113.691C40.4146 112.852 40.2426 111.978 39.9468 111.07C37.2224 102.615 40.5866 97.2902 40.2082 97.6548C39.9537 97.9025 39.7129 98.1295 39.479 98.3428C39.6922 98.1158 39.9193 97.875 40.1669 97.6136C40.5316 97.2352 35.1998 100.599 26.7515 97.875C25.8503 97.586 24.9697 97.4141 24.1304 97.3384C23.0847 97.2489 20.3053 96.9531 17.7735 97.8956C16.6384 98.3153 15.5514 98.9345 14.6433 99.8426C11.4786 103.007 11.4786 108.14 14.6433 111.311C16.6934 113.361 19.5623 114.084 22.1972 113.478C24.1923 113.134 25.2862 111.689 25.41 111.545C25.9535 110.891 27.1918 109.22 26.6552 107.28C26.036 105.044 24.5913 104.06 23.2016 103.964C22.9127 103.943 20.8694 104.225 21.2753 106.138C23.5938 104.844 24.7427 108.064 22.1903 108.676C21.4955 108.841 20.3259 108.38 19.8856 107.396C19.2458 105.979 19.5485 104.438 21.0964 103.406C22.4724 102.491 24.378 102.677 25.8434 103.461C27.1643 104.163 30.556 106.007 33.1841 104.652C31.8288 107.28 33.6725 110.671 34.3742 111.992C35.1585 113.464 35.3443 115.363 34.4293 116.739C33.3973 118.294 31.8494 118.597 30.4391 117.95C29.4553 117.503 28.9943 116.34 29.1594 115.645C29.7648 113.093 32.9914 114.242 31.698 116.56C33.6106 116.959 33.8927 114.916 33.872 114.634C33.7757 113.244 32.785 111.8 30.556 111.18C28.6228 110.644 26.951 111.882 26.2906 112.426C26.1461 112.549 24.7014 113.643 24.3574 115.638C23.752 118.266 24.4744 121.142 26.5245 123.192C29.6892 126.357 34.8214 126.357 37.993 123.192C38.908 122.277 39.5203 121.19 39.9399 120.062L39.9262 120.048Z" fill="#D14A43"/>
<path d="M97.1652 120.048C96.2226 117.517 96.5185 114.737 96.6079 113.691C96.6767 112.852 96.8487 111.978 97.1445 111.07C99.8689 102.615 96.5047 97.2902 96.8831 97.6548C97.1376 97.9025 97.3784 98.1295 97.6123 98.3428C97.3991 98.1158 97.172 97.875 96.9244 97.6136C96.5597 97.2352 101.892 100.599 110.34 97.875C111.241 97.586 112.122 97.4141 112.961 97.3384C114.007 97.2489 116.786 96.9531 119.318 97.8956C120.453 98.3153 121.54 98.9345 122.448 99.8426C125.613 103.007 125.613 108.14 122.448 111.311C120.398 113.361 117.529 114.084 114.894 113.478C112.899 113.134 111.805 111.689 111.681 111.545C111.138 110.891 109.899 109.22 110.436 107.28C111.055 105.044 112.5 104.06 113.89 103.964C114.179 103.943 116.222 104.225 115.816 106.138C113.498 104.844 112.349 108.064 114.901 108.676C115.596 108.841 116.765 108.38 117.206 107.396C117.846 105.979 117.543 104.438 115.995 103.406C114.619 102.491 112.713 102.677 111.248 103.461C109.927 104.163 106.535 106.007 103.907 104.652C105.263 107.28 103.419 110.671 102.717 111.992C101.933 113.464 101.747 115.363 102.662 116.739C103.694 118.294 105.242 118.597 106.652 117.95C107.636 117.503 108.097 116.34 107.932 115.645C107.326 113.093 104.1 114.242 105.393 116.56C103.481 116.959 103.199 114.916 103.219 114.634C103.316 113.244 104.306 111.8 106.535 111.18C108.469 110.644 110.14 111.882 110.801 112.426C110.945 112.549 112.39 113.643 112.734 115.638C113.339 118.266 112.617 121.142 110.567 123.192C107.402 126.357 102.27 126.357 99.0984 123.192C98.1834 122.277 97.5711 121.19 97.1514 120.062L97.1652 120.048Z" fill="#D14A43"/>
<path d="M17.7734 40.6564C20.3051 41.5989 23.0845 41.3031 24.1302 41.2136C24.9695 41.1448 25.8433 40.9728 26.7514 40.677C35.2065 37.9527 40.5314 41.3168 40.1668 40.9384C39.9191 40.6839 39.6921 40.4431 39.4788 40.2092C39.7058 40.4225 39.9466 40.6495 40.2081 40.8972C40.5865 41.2618 37.2223 35.93 39.9466 27.4818C40.2356 26.5805 40.4076 25.6999 40.4833 24.8606C40.5727 23.8149 40.8685 21.0355 39.926 18.5038C39.5063 17.3686 38.8872 16.2816 37.9791 15.3735C34.8144 12.2088 29.6821 12.2088 26.5106 15.3735C24.4604 17.4236 23.7381 20.2925 24.3435 22.9274C24.6875 24.9225 26.1322 26.0164 26.2767 26.1402C26.9303 26.6837 28.602 27.9221 30.5421 27.3854C32.778 26.7663 33.7618 25.3215 33.8581 23.9318C33.8787 23.6429 33.5967 21.5996 31.6841 22.0055C32.9775 24.324 29.7578 25.4729 29.1455 22.9205C28.9804 22.2257 29.4413 21.0561 30.4251 20.6158C31.8424 19.976 33.3834 20.2787 34.4154 21.8266C35.3304 23.2026 35.1446 25.1083 34.3603 26.5736C33.6586 27.8945 31.8148 31.2862 33.1701 33.9143C30.5421 32.559 27.1504 34.4027 25.8295 35.1045C24.3572 35.8887 22.4585 36.0745 21.0825 35.1595C19.5277 34.1275 19.225 32.5796 19.8717 31.1693C20.3189 30.1855 21.4815 29.7245 22.1764 29.8897C24.7288 30.4951 23.5798 33.7216 21.2614 32.4283C20.8624 34.3408 22.9056 34.6229 23.1877 34.6022C24.5774 34.5059 26.0221 33.5153 26.6413 31.2862C27.1779 29.353 25.9396 27.6813 25.3961 27.0208C25.2723 26.8763 24.1784 25.4316 22.1833 25.0876C19.5552 24.4822 16.6795 25.2046 14.6294 27.2547C11.4647 30.4194 11.4647 35.5517 14.6294 38.7232C15.5444 39.6382 16.6313 40.2505 17.7596 40.6701L17.7734 40.6564Z" fill="#D14A43"/>
</svg>
