<svg width="60" height="60" viewBox="0 0 60 60" fill="none" xmlns="http://www.w3.org/2000/svg">
<path d="M41.0007 27.9288C40.8382 27.8509 40.6745 27.7755 40.5096 27.7026C40.0624 20.6304 36.0792 16.556 29.5583 16.5144L29.4691 16.5142C25.5108 16.5142 22.2135 18.2098 20.1844 21.2887L20.0245 21.5312L24.0585 24.2985L24.2244 24.0468C25.6305 21.9134 27.8536 21.4655 29.4708 21.4655L29.5279 21.4656C31.5614 21.4786 33.0885 22.0612 34.067 23.1973C34.7155 23.9505 35.1745 24.9798 35.434 26.2611C33.65 25.9918 31.7202 25.9141 29.6896 26.0306C23.3837 26.3939 19.3311 30.0939 19.6054 35.2376C19.7447 37.8535 21.047 40.1032 23.2724 41.5726C25.1379 42.8039 27.538 43.4068 30.0284 43.271C33.3229 43.0904 35.9108 41.8292 37.7202 39.5228C39.0202 37.8657 39.8538 35.7814 40.2621 33.1621C41.5696 34.0331 42.5059 35.1134 43.0481 36.378C44.0749 38.7725 44.1316 42.7104 40.9118 45.9274C38.0586 48.7778 34.6198 50.0102 29.4177 50.0484C23.6428 50.0057 19.281 48.1614 16.4531 44.5665C13.7919 41.1834 12.4165 36.2817 12.365 30.0025C12.4165 23.718 13.7919 18.8163 16.4531 15.4334C19.2809 11.8386 23.6427 9.99421 29.4131 9.95132C35.2324 9.99456 39.6729 11.8493 42.6109 15.4641C44.0433 17.2263 45.1373 19.4551 45.8629 22.0884L45.9408 22.3714L50.6668 21.1106L50.589 20.8237C49.6939 17.5247 48.2708 14.6596 46.3594 12.3078C42.4591 7.5096 36.7639 5.05077 29.4299 5.00003H29.3988C22.0795 5.05066 16.4463 7.5198 12.6555 12.3387C9.29273 16.6135 7.55824 22.5491 7.50012 29.9807L7.5 30.002L7.50012 30.0197C7.55824 37.451 9.29273 43.3864 12.6555 47.6613C16.4464 52.4803 22.0798 54.9493 29.4009 55H29.432C35.9389 54.9548 40.5305 53.2464 44.3195 49.4607C49.3039 44.481 49.1518 38.2338 47.507 34.3972C46.3242 31.6399 44.0745 29.4033 41.0007 27.9288ZM24.4629 34.9693C24.319 32.2656 27.2105 31.1327 29.9645 30.9739C30.4588 30.9455 30.9544 30.931 31.4374 30.931C32.9062 30.931 34.302 31.0635 35.5902 31.3248C35.3442 33.9593 34.6206 35.8578 33.4379 36.9697C32.2679 38.0699 30.7821 38.2712 29.7664 38.327H29.766C28.0623 38.4225 26.4629 37.9589 25.4882 37.0854C24.8524 36.5157 24.5074 35.8037 24.4629 34.9693Z" fill="black"/>
</svg>
