<svg width="60" height="42" viewBox="0 0 60 42" fill="none" xmlns="http://www.w3.org/2000/svg">
<g clip-path="url(#clip0_20_19)">
<path d="M58.6749 6.55083C58.3307 5.28466 57.6594 4.13034 56.7278 3.2028C55.7961 2.27526 54.6367 1.60688 53.3649 1.2642C48.7088 0 29.9696 0 29.9696 0C29.9696 0 11.2294 0.0382666 6.57333 1.30247C5.30149 1.64516 4.14202 2.31358 3.21038 3.24116C2.27874 4.16875 1.60744 5.32312 1.26333 6.58933C-0.145033 14.8255 -0.691361 27.3756 1.302 35.2823C1.64615 36.5485 2.31747 37.7028 3.2491 38.6304C4.18074 39.5579 5.34019 40.2263 6.612 40.569C11.2681 41.8332 30.0078 41.8332 30.0078 41.8332C30.0078 41.8332 48.7472 41.8332 53.4031 40.569C54.6749 40.2263 55.8344 39.558 56.7661 38.6304C57.6978 37.7029 58.3692 36.5485 58.7133 35.2823C60.1988 27.0345 60.6565 14.4921 58.6749 6.55083Z" fill="#FF0000"/>
<path d="M24.0049 29.8807L39.5505 20.9165L24.0049 11.9523V29.8807Z" fill="white"/>
</g>
<defs>
<clipPath id="clip0_20_19">
<rect width="60" height="42" fill="white"/>
</clipPath>
</defs>
</svg>
